<svg width="26" height="26" viewBox="0 0 26 26" fill="none" xmlns="http://www.w3.org/2000/svg">
<path fill-rule="evenodd" clip-rule="evenodd" d="M20.1207 19.5276C20.2787 19.5276 20.43 19.5899 20.5406 19.7011C20.6526 19.8124 20.7141 19.9637 20.7141 20.121V20.7144C20.7141 20.8716 20.6526 21.0229 20.5406 21.1342C20.43 21.2455 20.2787 21.3078 20.1207 21.3078H5.87909C5.7211 21.3078 5.57052 21.2455 5.46001 21.1342C5.34801 21.0229 5.2857 20.8716 5.2857 20.7144V20.121C5.2857 19.9637 5.348 19.8124 5.46001 19.7011C5.57053 19.5899 5.72111 19.5276 5.87909 19.5276H20.1207ZM6.47249 19.2309V18.3408C6.47249 18.1806 6.59933 18.0493 6.75955 18.0441C9.0441 17.9684 10.8718 18.4646 12.4837 19.2309H6.47249ZM13.5288 19.2309C15.4046 18.3608 17.3102 17.9833 19.2402 18.0441C19.4004 18.0493 19.5273 18.1806 19.5273 18.3408V19.2309H13.5288ZM7.36041 17.7407L7.36264 17.4477C7.36412 17.3008 7.47168 17.1777 7.61781 17.1569C9.4084 16.904 11.2035 17.6354 12.9947 18.5944C14.6807 17.6287 16.4609 17.1347 18.3435 17.154C18.5067 17.1555 18.6372 17.2882 18.6372 17.4507V17.7429C16.7332 17.7726 14.8527 18.2266 13.0028 19.156C11.3992 18.3363 9.60053 17.7644 7.36041 17.7407ZM16.2637 12.1278V13.8724L16.2392 13.9948L16.1725 14.0949L16.0723 14.1624L15.95 14.1869H10.0509L9.92775 14.1624L9.82835 14.0949L9.76085 13.9948L9.73637 13.8724V12.1278L9.76085 12.0054L9.82835 11.9052L9.92775 11.8377L10.0509 11.8133H15.95L16.0723 11.8377L16.1725 11.9052L16.2392 12.0054L16.2637 12.1278ZM15.6703 14.4835V17.1782C14.752 17.4126 13.8589 17.7731 12.9904 18.256C12.1048 17.7887 11.2176 17.383 10.3297 17.1211V14.4834L15.6703 14.4835ZM8.56431 9.14291H7.36267V6.76931H9.73628V7.81814C9.59609 8.07033 9.38989 8.22833 9.08872 8.25503C8.77645 8.28396 8.53983 8.55025 8.54948 8.86401C8.55244 8.95895 8.55763 9.05167 8.56431 9.14291ZM18.9339 6.76931H19.2306C19.3953 6.76931 19.5273 6.90208 19.5273 7.06601V8.84621C19.5273 9.01014 19.3953 9.14291 19.2306 9.14291H18.9324C18.9339 9.11621 18.9339 9.08951 18.9339 9.06206L18.9339 6.76931ZM6.76929 9.04208L4.87189 8.22913C4.76285 8.1824 4.69238 8.07485 4.69238 7.95617C4.69238 7.83749 4.76285 7.72993 4.87189 7.6832L6.76929 6.87025V9.04208ZM19.7448 6.76931H21.0109C21.1756 6.76931 21.3076 6.90208 21.3076 7.06601V8.84621C21.3076 9.01014 21.1756 9.14291 21.0109 9.14291H19.7448C19.7959 9.05539 19.8241 8.95451 19.8241 8.84621V7.06601C19.8241 6.95771 19.7959 6.85683 19.7448 6.76931ZM9.74294 11.6122C9.2022 10.8979 8.88102 9.99743 8.84616 8.85504C8.84245 8.69853 8.95965 8.56503 9.11616 8.55092C9.55009 8.51086 9.8453 8.27573 10.033 7.89001V5.58249C10.033 5.34661 10.1272 5.12037 10.2933 4.95274C10.461 4.78584 10.6872 4.69238 10.9231 4.69238H11.8132C12.049 4.69238 12.276 4.78584 12.4429 4.95274C12.454 4.96461 12.4659 4.97648 12.477 4.98909H14.1868C14.4227 4.98909 14.6496 5.08255 14.8165 5.24944C14.8276 5.26131 14.8395 5.27318 14.8506 5.28579H15.967C16.2303 5.28579 16.4677 5.40076 16.6308 5.58249H17.7472C18.2397 5.58249 18.6373 5.98082 18.6373 6.47259V9.0621C18.6373 9.84539 18.2946 10.5886 17.699 11.096C17.6945 11.099 17.6908 11.1019 17.6878 11.1049C17.3333 11.3786 16.9439 11.6404 16.5092 11.8845L16.3809 11.6953L16.1873 11.5648L15.9499 11.5166H10.0509L9.81349 11.5648L9.74294 11.6122Z" fill="#1798A6"/>
</svg>
